PathFileType	4	(X/Y/Z)	c:/Users/goper/Files/vsCode/490R/osim_files/C10/C10_Fast_06.trc
DataRate	CameraRate	NumFrames	NumMarkers	Units                	OrigDataRate	OrigDataStartFrame	OrigNumFrames
250.00	250.00	7	36	mm	250.0	1079	2157
                Frame#	Time	LPSIS			LASIS			LTH1			LTH2			LTH3			LTH4			LLFE			LMFE			LSH1			LSH2			LSH3			LSH4			LLMAL			LMMAL			LCAL			LMTP5			LTOE			LMTP1			RPSIS			RASIS			RTH1			RTH2			RTH3			RTH4			RLFE			RMFE			RSH1			RSH2			RSH3			RSH4			RLMAL			RMMAL			RCAL			RMTP1			RTOE			RMTP5		
		X1	Y1	Z1	X2	Y2	Z2	X3	Y3	Z3	X4	Y4	Z4	X5	Y5	Z5	X6	Y6	Z6	X7	Y7	Z7	X8	Y8	Z8	X9	Y9	Z9	X10	Y10	Z10	X11	Y11	Z11	X12	Y12	Z12	X13	Y13	Z13	X14	Y14	Z14	X15	Y15	Z15	X16	Y16	Z16	X17	Y17	Z17	X18	Y18	Z18	X19	Y19	Z19	X20	Y20	Z20	X21	Y21	Z21	X22	Y22	Z22	X23	Y23	Z23	X24	Y24	Z24	X25	Y25	Z25	X26	Y26	Z26	X27	Y27	Z27	X28	Y28	Z28	X29	Y29	Z29	X30	Y30	Z30	X31	Y31	Z31	X32	Y32	Z32	X33	Y33	Z33	X34	Y34	Z34	X35	Y35	Z35	X36	Y36	Z36

1079	4.31200	-1641.05688	997.04236	323.68536	-1787.89905	967.37921	476.88297	-1678.19495	760.93610	514.96497	-1672.24609	714.68225	513.26514	-1735.74976	747.58362	508.93820	-1719.52478	701.62598	501.74078	-1601.16943	479.67551	443.14908	-1609.73267	464.28699	326.79987	-1515.31091	421.18307	447.24680	-1497.74414	376.97165	449.70291	-1569.85181	394.39133	439.50891	-1544.69946	355.56653	441.08609	-1412.96655	114.96828	399.88773	0.00000	0.00000	0.00000	-1333.10291	82.48576	362.88620	-1500.72095	30.23375	413.53720	-1549.79480	44.56059	347.56299	-1505.63501	20.11420	306.84818	-1643.57104	984.22058	243.43710	-1804.30591	951.92944	144.53424	-1787.34583	684.60779	107.76619	-1811.99585	651.88068	102.13898	-1839.64661	715.66876	98.93636	-1859.26953	674.07831	102.89188	-1956.53345	475.78671	164.76022	-1971.96960	478.56262	276.07321	-1931.19910	365.95181	155.15811	-1953.40637	328.01666	153.13664	-1990.68616	391.04453	157.77304	-2001.58936	345.85550	162.08881	-2089.14062	96.84602	196.48584	0.00000	0.00000	0.00000	-2065.31030	27.25223	238.97145	-2245.08813	107.10207	261.74384	-2256.99683	140.98640	223.27075	-2219.22314	104.80753	161.54613
1080	4.31600	-1648.21631	996.49323	323.13843	-1795.14075	966.52441	476.27713	-1685.32471	760.42456	514.45276	-1679.13306	714.21826	512.79498	-1742.75537	746.82428	508.35233	-1726.37366	700.89270	501.21170	-1606.99451	479.54340	443.26132	-1615.04358	463.87012	326.81686	-1520.55627	421.70624	447.59854	-1502.55676	377.67853	450.12045	-1574.85303	394.31183	439.64844	-1549.28113	355.77039	441.31906	-1414.57715	116.58662	400.68298	0.00000	0.00000	0.00000	-1334.21521	85.27979	363.78592	-1501.04333	30.23819	413.64771	-1549.81042	44.34338	347.63876	-1505.62341	20.69922	306.85922	-1650.55505	983.67395	243.04530	-1811.14148	951.71558	143.83855	-1795.68970	684.32874	107.09060	-1820.53735	651.88177	101.51206	-1847.68872	715.84015	98.30452	-1867.75110	674.40900	102.48719	-1963.95972	475.48874	164.67722	-1979.92407	478.63519	275.34518	-1937.16284	365.28842	154.92191	-1958.76709	326.99167	153.06248	-1996.82910	389.72592	157.43904	-2007.02222	344.16583	162.00607	-2090.23999	94.83727	196.59007	0.00000	0.00000	0.00000	-2065.01221	26.81135	239.00316	-2247.14282	102.40220	261.55679	-2259.15112	136.03505	223.15768	-2221.15625	100.65745	161.38960
1081	4.32000	-1655.45081	995.85834	322.56964	-1802.55969	965.71393	475.69760	-1692.53027	759.87000	513.94617	-1687.99146	713.32416	512.43933	-1749.93262	746.08936	507.70935	-1733.30005	700.06311	500.56876	-1612.93469	479.37152	443.35706	-1620.50549	463.44507	326.87820	-1526.03931	422.22177	447.97488	-1507.56580	378.45621	450.59265	-1579.95239	394.21375	439.80545	-1554.04016	355.93729	441.57242	-1416.39722	118.19877	401.55261	0.00000	0.00000	0.00000	-1335.52197	88.15112	364.71042	-1501.37769	30.24669	413.79214	-1549.81421	44.08136	347.71130	-1505.70654	21.22271	306.88129	-1657.61560	983.15131	242.62756	-1818.05750	951.52551	143.16577	-1804.13428	683.92108	106.46815	-1829.65857	650.59137	101.79633	-1855.95667	715.98755	97.62045	-1876.26331	674.66907	102.17537	-1971.36169	475.11597	164.59883	-1987.68640	478.54852	274.61182	-1943.04089	364.62546	154.67773	-1964.03687	325.88223	153.03717	-2002.92920	388.25912	157.21028	-2012.30469	342.54193	161.97119	-2091.03418	93.03074	196.82051	0.00000	0.00000	0.00000	-2064.76318	26.42183	239.51170	-2249.06201	98.08758	261.64554	-2261.62378	131.19229	223.11653	-2222.74072	96.84119	161.09386
1082	4.32400	-1662.78699	995.23688	322.03131	-1810.06921	964.87476	475.04388	-1700.61511	759.22522	513.58728	-1695.00671	712.79724	511.90921	-1757.17249	745.37860	507.15570	-1740.39185	699.39648	500.06964	-1619.02979	479.19205	443.51709	-1626.00293	463.10736	326.88504	-1531.75732	422.73694	448.38141	-1512.76624	379.18896	451.04584	-1585.30212	394.11725	440.00153	-1558.96362	356.19009	441.87811	-1418.19690	119.93913	402.42563	0.00000	0.00000	0.00000	-1336.88318	91.13130	365.61493	-1501.76978	30.25224	413.88211	-1549.86938	43.84234	347.75302	-1505.77625	21.82249	306.86026	-1664.62366	982.65070	242.26797	-1829.07812	953.63330	140.57886	-1812.60046	683.59955	105.78976	-1839.47119	651.18604	101.32188	-1864.19312	716.03595	97.01156	-1884.79529	674.90076	101.82877	-1978.65332	474.63425	164.54204	-1995.30005	478.33127	273.68384	-1948.82788	363.94473	154.44104	-1969.22839	324.83905	152.97639	-2008.87402	386.82220	157.11642	-2017.57080	340.78940	162.09207	-2094.33008	90.86263	196.34598	0.00000	0.00000	0.00000	-2064.94751	26.51867	239.85652	-2250.98730	93.59933	261.50626	-2264.13501	126.56898	223.02527	-2224.34570	93.04360	161.09554
1083	4.32800	-1670.20459	994.56000	321.52615	-1817.74072	964.02014	474.45605	-1707.23389	758.78577	513.09473	-1702.26331	712.22852	511.45377	-1764.42297	744.66211	506.60770	-1747.63477	698.68292	499.47873	-1625.23132	479.02490	443.61996	-1631.67810	462.78104	326.84314	-1537.56677	423.27985	448.77478	-1518.06494	379.88791	451.47668	-1590.65588	394.03717	440.17535	-1563.98914	356.34222	442.12079	-1420.22925	121.72923	403.33752	0.00000	0.00000	0.00000	-1338.43286	94.24702	366.61902	-1502.26428	30.27668	413.98224	-1549.95447	43.62148	347.80124	-1505.91479	22.46270	306.85437	-1671.63245	982.19489	241.94777	-1830.89185	950.93701	143.04303	-1821.10632	683.18805	105.12920	-1851.94177	650.91656	99.04437	-1872.42065	715.99286	96.45222	-1893.36438	675.01062	101.54281	-1985.74707	474.02252	164.43118	-2002.56140	477.82672	272.75638	-1954.46509	363.24750	154.19687	-1974.33008	323.79633	153.00346	-2014.71289	385.35516	157.01834	-2022.70410	339.22971	162.20718	-2095.59595	89.00983	196.58473	0.00000	0.00000	0.00000	-2065.95874	27.19896	240.22000	-2253.13672	89.43275	261.26028	-2266.32422	122.36447	222.80338	-2226.46460	89.22147	161.10266
1084	4.33200	-1677.47583	993.97205	321.03967	-1825.47998	963.26416	473.89835	-1714.77893	758.22974	512.63544	-1709.49158	711.71460	510.93204	-1771.90149	743.93530	505.97302	-1754.93896	698.02655	498.82040	-1631.61292	478.82202	443.69070	-1637.56311	462.46429	326.81354	-1543.45789	423.75058	449.09781	-1523.58655	380.66064	451.96707	-1596.32739	393.94666	440.26801	-1569.13892	356.51495	442.34195	-1422.36218	123.57635	404.26071	0.00000	0.00000	0.00000	-1340.12219	97.49841	367.60873	-1502.75439	30.31609	414.05609	-1550.10718	43.45031	347.86969	-1506.12708	23.21677	306.83069	-1678.70117	981.77429	241.60725	-1837.98364	950.85956	142.20815	-1829.57385	682.73285	104.40738	-1860.91760	649.99591	99.82172	-1880.69641	715.87646	95.94914	-1901.91113	674.98370	101.42505	-1992.66052	473.23267	164.27022	-2009.43713	477.18927	271.72189	-1960.01782	362.63397	154.04402	-1982.00610	322.65982	152.49211	-2020.21570	384.08194	157.00343	-2027.69727	337.85544	162.40172	-2097.97900	87.94180	197.03889	0.00000	0.00000	0.00000	-2067.49683	28.69703	240.32690	-2255.45020	85.78241	261.11508	-2269.44580	118.38272	222.36893	-2229.34814	85.12369	161.11139
1085	4.33600	-1684.90918	993.44147	320.56879	-1833.34497	962.53998	473.31647	-1722.36511	757.70276	512.21136	-1716.90063	711.24091	510.45502	-1779.47083	743.29645	505.28152	-1762.31433	697.52753	498.22617	-1638.20435	478.65128	443.68274	-1643.64478	462.16779	326.69513	-1549.65881	424.31375	449.39862	-1529.17798	381.46100	452.29904	-1602.01746	393.90839	440.38013	-1574.44885	356.80707	442.52747	-1424.67505	125.54052	405.19977	0.00000	0.00000	0.00000	-1342.00891	100.91675	368.60336	-1503.25769	30.40135	414.14307	-1550.24316	43.27490	347.88712	-1506.38330	23.96025	306.77783	-1685.71533	981.46667	241.31432	-1844.96716	950.78015	141.36301	-1837.85278	682.16394	103.70047	-1869.39404	649.66211	99.34041	-1888.88879	715.62360	95.44610	-1910.23743	674.77734	101.34931	-1999.25562	472.40765	164.02634	-2015.62109	476.39874	270.82144	-1967.54443	361.84909	153.26877	-1987.18799	322.05902	152.66737	-2025.71802	383.38599	157.03807	-2032.85620	336.95422	162.76219	-2102.20557	87.97130	197.10962	0.00000	0.00000	0.00000	-2069.50073	30.49636	240.23805	-2258.16089	82.37725	261.07938	-2273.95215	114.31940	222.28729	-2232.77393	80.67903	161.07478
